<?xml version="1.0" encoding="UTF-8"?>
<svg width="1000px" height="1000px" viewBox="0 0 1000 1000" version="1.1" xmlns="http://www.w3.org/2000/svg" xmlns:xlink="http://www.w3.org/1999/xlink">
    <!-- Generator: Sketch 54.1 (76490) - https://sketchapp.com -->
    <title>编组 79</title>
    <desc>Created with Sketch.</desc>
    <defs>
        <linearGradient x1="54.8667053%" y1="45.6804785%" x2="24.5931307%" y2="98.2816615%" id="linearGradient-1">
            <stop stop-color="#010101" stop-opacity="0" offset="0%"></stop>
            <stop stop-color="#010101" offset="95%"></stop>
        </linearGradient>
        <linearGradient x1="56.4673082%" y1="46.7368941%" x2="9.84103701%" y2="110.328368%" id="linearGradient-2">
            <stop stop-color="#010101" stop-opacity="0" offset="0%"></stop>
            <stop stop-color="#010101" offset="95%"></stop>
        </linearGradient>
        <linearGradient x1="42.7215367%" y1="45.0575102%" x2="92.3116037%" y2="73.1623765%" id="linearGradient-3">
            <stop stop-color="#010101" stop-opacity="0" offset="0%"></stop>
            <stop stop-color="#010101" offset="95%"></stop>
        </linearGradient>
        <linearGradient x1="39.482884%" y1="46.6494274%" x2="113.975022%" y2="99.7046024%" id="linearGradient-4">
            <stop stop-color="#010101" stop-opacity="0" offset="0%"></stop>
            <stop stop-color="#010101" offset="95%"></stop>
        </linearGradient>
        <linearGradient x1="49.8535909%" y1="48.8702531%" x2="50.0154115%" y2="50.7742273%" id="linearGradient-5">
            <stop stop-color="#FFFFFF" stop-opacity="0" offset="0%"></stop>
            <stop stop-color="#FFFFFF" offset="95%"></stop>
        </linearGradient>
        <linearGradient x1="49.1960341%" y1="50.2184663%" x2="52.2372342%" y2="49.0602243%" id="linearGradient-6">
            <stop stop-color="#010101" stop-opacity="0" offset="0%"></stop>
            <stop stop-color="#010101" offset="95%"></stop>
        </linearGradient>
        <linearGradient x1="50.4003093%" y1="51.3903653%" x2="2.21676608%" y2="-8.27834151%" id="linearGradient-7">
            <stop stop-color="#010101" stop-opacity="0" offset="0%"></stop>
            <stop stop-color="#010101" offset="95%"></stop>
        </linearGradient>
        <linearGradient x1="-7.20221288e-13%" y1="49.9990997%" x2="100.095109%" y2="49.9990997%" id="linearGradient-8">
            <stop stop-color="#E5C6D6" offset="0%"></stop>
            <stop stop-color="#EAD4D0" offset="42%"></stop>
            <stop stop-color="#F0E9CB" offset="100%"></stop>
        </linearGradient>
        <linearGradient x1="6.98322099e-13%" y1="49.9621392%" x2="100%" y2="49.9621392%" id="linearGradient-9">
            <stop stop-color="#010101" stop-opacity="0" offset="0%"></stop>
            <stop stop-color="#010101" offset="95%"></stop>
        </linearGradient>
        <linearGradient x1="-0.318141707%" y1="49.9796086%" x2="100.189755%" y2="49.9796086%" id="linearGradient-10">
            <stop stop-color="#E5C6D6" offset="0%"></stop>
            <stop stop-color="#EAD4D0" offset="42%"></stop>
            <stop stop-color="#F0E9CB" offset="100%"></stop>
        </linearGradient>
        <linearGradient x1="83.8515081%" y1="34.4084905%" x2="-65.0116009%" y2="81.4465274%" id="linearGradient-11">
            <stop stop-color="#010101" stop-opacity="0" offset="0%"></stop>
            <stop stop-color="#010101" offset="95%"></stop>
        </linearGradient>
        <linearGradient x1="34.3707388%" y1="47.776989%" x2="295.585786%" y2="132.343561%" id="linearGradient-12">
            <stop stop-color="#010101" stop-opacity="0" offset="0%"></stop>
            <stop stop-color="#010101" offset="95%"></stop>
        </linearGradient>
        <linearGradient x1="0.00428354882%" y1="49.8830519%" x2="100.044434%" y2="49.8830519%" id="linearGradient-13">
            <stop stop-color="#E5C6D6" offset="0%"></stop>
            <stop stop-color="#EAD4D0" offset="42%"></stop>
            <stop stop-color="#F0E9CB" offset="100%"></stop>
        </linearGradient>
        <linearGradient x1="64.1707802%" y1="80.6297442%" x2="-9.71340129%" y2="-102.333427%" id="linearGradient-14">
            <stop stop-color="#010101" stop-opacity="0" offset="0%"></stop>
            <stop stop-color="#010101" offset="95%"></stop>
        </linearGradient>
        <linearGradient x1="72.1996735%" y1="38.0797313%" x2="19.5996365%" y2="66.556324%" id="linearGradient-15">
            <stop stop-color="#E5C6D6" offset="0%"></stop>
            <stop stop-color="#EAD4D0" offset="42%"></stop>
            <stop stop-color="#F0E9CB" offset="100%"></stop>
        </linearGradient>
        <linearGradient x1="0.0279003522%" y1="50.0330199%" x2="100.538561%" y2="50.0330199%" id="linearGradient-16">
            <stop stop-color="#E5C6D6" offset="0%"></stop>
            <stop stop-color="#EAD4D0" offset="42%"></stop>
            <stop stop-color="#F0E9CB" offset="100%"></stop>
        </linearGradient>
    </defs>
    <g id="上传" stroke="none" stroke-width="1" fill="none" fill-rule="evenodd">
        <g id="画板" transform="translate(-10452.000000, -3703.000000)">
            <g id="编组-79" transform="translate(10452.000000, 3703.000000)">
                <rect id="矩形复制-30" x="0" y="0" width="1000" height="1000"></rect>
                <g id="编组-3" transform="translate(80.000000, 156.000000)" fill-rule="nonzero">
                    <path d="M730.406082,512.635806 C732.838618,506.138759 731.935631,498.887097 733.004473,492.021945 C733.380168,488.743092 734.599098,485.617154 736.542708,482.948165 C739.858184,478.868898 745.257186,477.105081 750.345512,478.438883 C756.924418,480.279406 761.107644,487.107748 761.844777,493.880874 C762.581909,500.653999 760.573223,507.390315 758.361826,513.832146 C753.736321,527.212751 748.207828,540.262061 743.490181,553.605855 C739.601808,564.648995 737.095558,578.931456 746.162286,586.348765 C748.484253,588.189288 751.395926,589.459249 753.367755,591.723093 C754.993146,593.801601 756.041864,596.270938 756.408426,598.882729 C759.965089,617.674472 746.567709,635.932463 730.608793,646.386635 C725.30144,649.846819 719.385953,652.828467 713.065043,652.994114 C703.076899,653.233382 693.991743,646.147367 689.366238,637.29445 C684.740732,628.441533 683.837745,618.153008 684.022028,608.177371 C684.442185,595.487483 685.611341,582.833388 687.523407,570.280996 C688.850245,560.26855 690.21394,550.03524 693.973315,540.832623 C696.829703,533.728203 702.708333,522.42739 710.890502,520.770919 C719.072672,519.114448 726.001716,524.415155 730.406082,512.635806 Z" id="路径" fill="#207DFE"></path>
                    <path d="M727.406082,511.641868 C729.838618,505.125885 728.935631,497.892039 730.004473,491.026328 C730.379535,487.741411 731.598374,484.609113 733.542708,481.933402 C736.86259,477.860552 742.260844,476.104035 747.345512,477.442159 C753.924418,479.282832 758.107644,486.11173 758.844777,492.867001 C759.581909,499.622272 757.573223,506.377543 755.361826,512.819899 C750.736321,526.201594 745.207828,539.251967 740.490181,552.615255 C736.601808,563.659295 734.095558,577.924513 743.162286,585.342426 C745.484253,587.183099 748.395926,588.47157 750.367755,590.735599 C751.992451,592.807703 753.041279,595.27115 753.408426,597.877411 C756.965089,616.689092 743.567709,634.930164 727.608793,645.403595 C722.30144,648.86406 716.385953,651.845951 710.065043,651.993205 C700.076899,652.250899 690.991743,645.1459 686.366238,636.310669 C681.740732,627.475437 680.837745,617.14926 681.022028,607.172811 C681.443889,594.481995 682.613036,581.826969 684.523407,569.273348 C685.850245,559.260086 687.21394,549.136383 690.973315,539.822576 C693.829703,532.735984 699.708333,521.526284 707.908931,519.777644 C716.109528,518.029004 723.001716,523.385364 727.406082,511.641868 Z" id="路径" fill="url(#linearGradient-1)"></path>
                    <path d="M749,428 C729.765697,459.818287 735.147603,502.789565 713.028154,532.709077 C706.314642,541.797383 697.381788,549.152827 691.352573,558.720435 C685.323359,568.288042 682.882082,581.524154 689.836023,590.428113 C708.552479,579.606946 715.081046,556.471402 724.402285,536.967492 C725.041692,535.328794 726.084797,533.876974 727.435387,532.745947 C732.484391,529.18805 738.754035,536.156366 739.30887,542.29512 C740.806927,558.646696 726.899046,571.956547 721.147249,587.331084 C713.934385,606.613777 719.094357,630.800099 705.408411,646.211505 C702.634232,649.326969 698.898339,651.981565 694.700082,652 C691.636218,651.821786 688.674796,650.835718 686.118624,649.142622 C665.715558,637.290775 652.172514,616.484301 649.628931,593.082709 C647.650017,573.431323 649.961832,550.387952 662.038755,534.736894 C671.896336,521.961649 671.581929,508.412147 677.611143,493.074479 C683.915836,477.159465 693.776508,462.885992 706.444104,451.338326 C712.482145,445.826765 719.141578,441.032389 726.288726,437.051436 C730.320532,434.857707 747.206031,431.06016 749,428 Z" id="路径" fill="#207DFE"></path>
                    <path d="M747,428 C727.767524,459.818287 733.130426,502.789565 711.031571,532.709077 C704.318697,541.797383 695.386691,549.152827 689.35805,558.720435 C683.329408,568.288042 680.888363,581.524154 687.82315,590.428113 C706.556322,579.606946 713.065775,556.471402 722.404622,536.967492 C723.036785,535.324929 724.08099,533.87144 725.437435,532.745947 C730.48596,529.18805 736.755008,536.156366 737.309791,542.29512 C738.807705,558.646696 724.901145,571.956547 719.149895,587.331084 C711.937716,606.613777 717.097198,630.800099 703.412551,646.211505 C700.638637,649.326969 696.884605,651.981565 692.70524,652 C689.636481,651.818912 686.670106,650.833225 684.106104,649.142622 C663.715478,637.279796 650.177557,616.479215 647.619877,593.082709 C645.659644,573.431323 647.97124,550.387952 660.028523,534.736894 C669.90366,521.961649 669.589283,508.412147 675.617925,493.074479 C681.922019,477.159465 691.781754,462.885992 704.448146,451.338326 C710.485614,445.826765 717.144415,441.032389 724.290884,437.051436 C728.340799,434.857707 745.206202,431.06016 747,428 Z" id="路径" fill="url(#linearGradient-2)"></path>
                    <path d="M61.8363727,548.365558 C58.1347661,537.282553 56.6541235,525.700814 53.1561053,514.61781 C49.6580871,503.534806 43.5319282,492.54416 33.315494,487.002658 C23.0990598,481.461156 8.20009336,483.529983 2.57365135,493.707875 C0.340840663,498.093986 -0.467772678,503.065259 0.260147243,507.931064 C2.29603086,525.091249 16.6212483,538.520156 20.4339031,555.384794 C22.7103911,565.396441 21.0631762,575.906823 22.5438189,586.084715 C24.711907,600.466784 32.8826433,613.259236 45.0310788,621.291725 C51.879051,625.76187 59.7264569,628.532621 66.7224934,632.781106 C75.9254615,638.407109 83.413229,646.435856 88.3768919,656 C100.137752,645.358576 106.575403,630.067065 105.959523,614.235546 C104.38634,580.266138 71.4605498,576.664162 61.8363727,548.365558 Z" id="路径" fill="#207DFE"></path>
                    <path d="M61.8363727,548.365558 C58.1347661,537.282553 56.6541235,525.700814 53.1561053,514.61781 C49.6580871,503.534806 43.5319282,492.54416 33.315494,487.002658 C23.0990598,481.461156 8.20009336,483.529983 2.57365135,493.707875 C0.340840663,498.093986 -0.467772678,503.065259 0.260147243,507.931064 C2.29603086,525.091249 16.6212483,538.520156 20.4339031,555.384794 C22.7103911,565.396441 21.0631762,575.906823 22.5438189,586.084715 C24.711907,600.466784 32.8826433,613.259236 45.0310788,621.291725 C51.879051,625.76187 59.7264569,628.532621 66.7224934,632.781106 C75.9254615,638.407109 83.413229,646.435856 88.3768919,656 C100.137752,645.358576 106.575403,630.067065 105.959523,614.235546 C104.38634,580.266138 71.4605498,576.664162 61.8363727,548.365558 Z" id="路径" fill="url(#linearGradient-3)"></path>
                    <path d="M101.335592,487.377628 C99.8406189,480.177321 99.8959883,472.645543 97.6443004,465.629387 C95.3926124,458.613231 90.0402395,451.799642 82.694569,451.063037 C74.2415111,450.215942 66.8958406,458.042363 65.17939,466.347576 C63.4629394,474.652789 65.8622789,483.197399 68.2616185,491.336876 L77.619043,523.195012 C80.5351634,533.083924 82.3069834,546.15865 73.4663398,551.499031 C71.3716069,552.545147 69.2142666,553.4615 67.0065794,554.242882 C59.4742565,557.733439 54.7543274,565.369838 55.0098814,573.652405 C55.4897493,583.707053 63.1122666,591.717625 69.7750481,599.304649 C76.4378296,606.891673 82.8237642,616.541189 80.276773,626.282781 C78.4311271,633.501503 71.7314327,639.762639 73.1156671,647.091852 C74.2415111,653.168837 80.8858361,656.943934 87.0872061,656.999179 C93.2885762,657.054425 99.120817,654.310574 104.713124,651.621968 L131.419619,638.731393 C140.001872,634.587994 149.027081,630.076293 154.157976,622.047306 C157.344292,616.481696 159.189342,610.252841 159.547262,603.85318 C161.852725,579.529594 155.300742,555.191215 141.090804,535.293737 C128.023631,517.154856 106.484944,512.109117 101.335592,487.377628 Z" id="路径" fill="#207DFE"></path>
                    <path d="M101.335592,487.377628 C99.8406189,480.177321 99.8959883,472.645543 97.6443004,465.629387 C95.3926124,458.613231 90.0402395,451.799642 82.694569,451.063037 C74.2415111,450.215942 66.8958406,458.042363 65.17939,466.347576 C63.4629394,474.652789 65.8622789,483.197399 68.2616185,491.336876 L77.619043,523.195012 C80.5351634,533.083924 82.3069834,546.15865 73.4663398,551.499031 C71.3716069,552.545147 69.2142666,553.4615 67.0065794,554.242882 C59.4742565,557.733439 54.7543274,565.369838 55.0098814,573.652405 C55.4897493,583.707053 63.1122666,591.717625 69.7750481,599.304649 C76.4378296,606.891673 82.8237642,616.541189 80.276773,626.282781 C78.4311271,633.501503 71.7314327,639.762639 73.1156671,647.091852 C74.2415111,653.168837 80.8858361,656.943934 87.0872061,656.999179 C93.2885762,657.054425 99.120817,654.310574 104.713124,651.621968 L131.419619,638.731393 C140.001872,634.587994 149.027081,630.076293 154.157976,622.047306 C157.344292,616.481696 159.189342,610.252841 159.547262,603.85318 C161.852725,579.529594 155.300742,555.191215 141.090804,535.293737 C128.023631,517.154856 106.484944,512.109117 101.335592,487.377628 Z" id="路径" fill="url(#linearGradient-4)"></path>
                    <rect id="矩形" fill="#207DFE" x="126" y="259" width="552" height="356" rx="15.89"></rect>
                    <rect id="矩形" fill="#FFFFFF" x="139" y="273" width="521" height="336" rx="14.99"></rect>
                    <g id="编组" opacity="0.52" transform="translate(213.000000, 345.000000)" fill="#207DFE">
                        <rect id="矩形" x="0.77017341" y="0.794112903" width="104.661503" height="7.68258065"></rect>
                        <rect id="矩形" x="0.77017341" y="15.6606452" width="63.8737572" height="7.2208871"></rect>
                        <rect id="矩形" x="90.4220809" y="15.6606452" width="201.025318" height="7.25782258"></rect>
                        <rect id="矩形" x="33.9793642" y="30.5825806" width="87.8448555" height="7.60870968"></rect>
                        <rect id="矩形" x="62.1730636" y="45.4491129" width="104.661503" height="7.68258065"></rect>
                        <rect id="矩形" x="173.65711" y="45.4491129" width="87.7157803" height="8.53209677"></rect>
                        <rect id="矩形" x="62.0255491" y="60.3341129" width="80.8194798" height="7.2208871"></rect>
                        <rect id="矩形" x="150.589538" y="60.3341129" width="166.765087" height="7.99653226"></rect>
                        <rect id="矩形" x="0.77017341" y="80.4639516" width="104.661503" height="7.68258065"></rect>
                        <rect id="矩形" x="0.77017341" y="95.3304839" width="63.8737572" height="7.2208871"></rect>
                        <rect id="矩形" x="90.4220809" y="95.3304839" width="201.025318" height="7.25782258"></rect>
                        <rect id="矩形" x="33.9793642" y="110.215484" width="87.8448555" height="7.60870968"></rect>
                        <rect id="矩形" x="62.1730636" y="125.118952" width="104.661503" height="7.68258065"></rect>
                        <rect id="矩形" x="173.65711" y="125.118952" width="87.7157803" height="8.53209677"></rect>
                        <rect id="矩形" x="62.0255491" y="140.003952" width="80.8194798" height="7.2208871"></rect>
                        <rect id="矩形" x="150.589538" y="140.003952" width="166.765087" height="7.99653226"></rect>
                        <rect id="矩形" x="0.77017341" y="160.13379" width="104.661503" height="7.68258065"></rect>
                        <rect id="矩形" x="0.77017341" y="175.000323" width="63.8737572" height="7.2208871"></rect>
                        <rect id="矩形" x="90.4220809" y="175.000323" width="201.025318" height="7.25782258"></rect>
                        <rect id="矩形" x="33.9793642" y="189.885323" width="87.8448555" height="7.60870968"></rect>
                        <rect id="矩形" x="62.1730636" y="204.751855" width="104.661503" height="7.68258065"></rect>
                        <rect id="矩形" x="173.65711" y="204.751855" width="87.7157803" height="8.53209677"></rect>
                        <rect id="矩形" x="62.0255491" y="219.67379" width="80.8194798" height="7.2208871"></rect>
                        <rect id="矩形" x="150.589538" y="219.67379" width="166.765087" height="7.99653226"></rect>
                    </g>
                    <rect id="矩形" fill="#207DFE" opacity="0.24" transform="translate(125.000000, 406.500000) rotate(-180.000000) translate(-125.000000, -406.500000) " x="4" y="362" width="242" height="89" rx="14.26"></rect>
                    <polygon id="路径" fill="#207DFE" points="143.558255 613.13815 41 690 759 690 658.728604 612"></polygon>
                    <polygon id="路径" fill="url(#linearGradient-5)" points="143.558255 613.13815 41 690 759 690 658.728604 612"></polygon>
                    <polygon id="路径" fill="#207DFE" points="70.378763 718.264615 41 690 759 690 732.479811 720"></polygon>
                    <polygon id="路径" fill="url(#linearGradient-6)" points="70.378763 718.264615 41 690 759 690 732.479811 720"></polygon>
                    <polygon id="路径" fill="#207DFE" opacity="0.58" points="319 678 349.608365 653.576637 461.654204 653 494 677.404762"></polygon>
                    <polygon id="路径" fill="#207DFE" opacity="0.58" points="107 649 688 648.229358 656.879282 623 142.732561 623"></polygon>
                    <g id="编组" opacity="0.24" transform="translate(511.000000, 176.000000)" fill="#207DFE">
                        <rect id="矩形" x="0.239889503" y="0.382352941" width="332.911271" height="153.330588" rx="12.77"></rect>
                        <polygon id="路径" points="0.239889503 185.304314 0.239889503 129.604706 47.3874033 129.604706"></polygon>
                    </g>
                    <rect id="矩形" fill="#FFFFFF" x="511" y="163" width="333" height="153" rx="12.77"></rect>
                    <polygon id="路径" fill="#FFFFFF" points="511 348 511 292 558 292"></polygon>
                    <rect id="矩形" fill="#FFFFFF" transform="translate(121.000000, 399.500000) rotate(-180.000000) translate(-121.000000, -399.500000) " x="0" y="355" width="242" height="89" rx="14.26"></rect>
                    <g id="编组" opacity="0.52" transform="translate(36.000000, 374.000000)" fill="#207DFE">
                        <rect id="矩形" x="0.924731183" y="0.0733333333" width="56.3716129" height="4.10666667"></rect>
                        <rect id="矩形" x="0.924731183" y="7.99333333" width="34.4184946" height="3.85"></rect>
                        <rect id="矩形" x="49.2326882" y="7.99333333" width="108.286022" height="3.86833333"></rect>
                        <rect id="矩形" x="18.8275269" y="15.95" width="47.3092473" height="4.05166667"></rect>
                        <rect id="矩形" x="34.0116129" y="23.8883333" width="56.3716129" height="4.10666667"></rect>
                        <rect id="矩形" x="94.0636559" y="23.8883333" width="47.2537634" height="4.54666667"></rect>
                        <rect id="矩形" x="33.9376344" y="31.8083333" width="43.5363441" height="3.85"></rect>
                        <rect id="矩形" x="81.6352688" y="31.8083333" width="89.8283871" height="4.27166667"></rect>
                        <rect id="矩形" x="0.924731183" y="42.5333333" width="56.3716129" height="4.10666667"></rect>
                        <rect id="矩形" x="0.924731183" y="50.4716667" width="34.4184946" height="3.85"></rect>
                        <rect id="矩形" x="49.2326882" y="50.4716667" width="108.286022" height="3.86833333"></rect>
                    </g>
                    <path d="M365.037126,318.774737 L366.039532,313.586316 C366.225163,312.619298 366.392231,311.633684 366.577862,310.555088 C368.211413,310.834035 369.770712,311.075789 371.33001,311.39193 C371.541295,311.474346 371.77727,311.465068 371.981458,311.366318 C372.185646,311.267567 372.339671,311.08823 372.406669,310.871228 C373.112066,309.495088 373.891715,308.15614 374.727054,306.854386 C374.882589,306.706874 374.970699,306.501758 374.970699,306.287193 C374.970699,306.072628 374.882589,305.867512 374.727054,305.72 C373.687521,304.511228 372.666552,303.265263 371.589893,302.000702 L378.346855,296.310175 C379.40495,297.55614 380.444483,298.764912 381.428326,300.029474 C381.550773,300.238056 381.754058,300.38645 381.989768,300.439316 C382.225477,300.492182 382.472516,300.444788 382.672052,300.308421 C384.029337,299.703573 385.424524,299.187978 386.848745,298.764912 C387.517016,298.578947 387.665521,298.318596 387.646958,297.704912 C387.646958,296.142807 387.646958,294.599298 387.646958,293 L396.482984,293 C396.482984,294.580702 396.482984,296.142807 396.482984,297.723509 C396.482984,298.355789 396.650052,298.578947 397.281196,298.764912 C398.70369,299.19317 400.098553,299.708645 401.457889,300.308421 C401.659752,300.443244 401.908536,300.487775 402.144513,300.431321 C402.380489,300.374867 402.582345,300.222527 402.701616,300.010877 C403.685459,298.783509 404.706428,297.593333 405.764524,296.291579 L412.540048,301.982105 L409.068752,306.129123 C409.996906,307.877193 410.92506,309.532281 411.816088,311.150175 C412.037618,311.350756 412.338091,311.439692 412.632864,311.39193 L417.459264,310.555088 L419,319.258246 C417.347886,319.555789 415.751461,319.81614 414.173599,320.132281 C413.913716,320.132281 413.523891,320.429825 413.486765,320.634386 C413.171193,322.494035 412.91131,324.353684 412.632864,326.213333 L417.292197,328.928421 L412.874184,336.590175 L408.177724,333.893684 C406.655552,335.102456 405.189068,336.255439 403.759711,337.464211 C403.591538,337.67281 403.536056,337.950718 403.611207,338.20807 C404.149536,339.770175 404.724991,341.332281 405.300447,342.950175 L397.00275,345.981404 C396.501547,344.56807 395.944655,343.19193 395.499141,341.778596 C395.239257,340.960351 394.886559,340.718596 393.995531,340.792982 C392.561802,340.895269 391.122626,340.895269 389.688897,340.792982 C389.16913,340.792982 388.964936,340.904561 388.816432,341.38807 C388.296666,342.894386 387.72121,344.400702 387.127191,346 L378.736679,343.061754 L380.592987,337.929123 L375.877965,333.930877 L371.14438,336.664561 L366.726366,329.002807 C368.174287,328.165965 369.547955,327.347719 370.940186,326.566667 C371.140729,326.492323 371.301991,326.338727 371.386224,326.141829 C371.470457,325.944931 371.470267,325.722017 371.3857,325.525263 C371.052437,324.095157 370.792216,322.64895 370.60605,321.192281 C370.60605,320.485614 370.36473,320.150877 369.566518,320.057895 C368.044345,319.87193 366.522173,319.555789 365,319.276842 L365.037126,318.774737 Z M392.083534,308.21193 C385.858395,308.130896 380.74341,313.115006 380.651764,319.3512 C380.560118,325.587395 385.526426,330.720191 391.751249,330.822779 C397.976071,330.925367 403.108221,325.958998 403.221382,319.723158 C403.304131,313.469074 398.325928,308.323984 392.083534,308.21193 L392.083534,308.21193 Z" id="形状" fill="#207DFE" opacity="0.24"></path>
                    <polygon id="路径" fill="#207DFE" points="577 239.55461 611 222 611 227.070922 582.338387 241.398582 582.338387 241.52766 611 255.929078 611 261 577 243.44539"></polygon>
                    <path d="M622,209 L628.402439,209 L628.402439,231.072869 L628.54878,231.072869 C629.638117,229.165362 631.225996,227.594127 633.140244,226.529537 C635.134139,225.355417 637.396897,224.721629 639.707317,224.690131 C644.426829,224.690131 652,227.614786 652,239.846834 L652,261 L645.597561,261 L645.597561,240.637779 C645.597561,234.917227 643.493902,230.07959 637.439024,230.07959 C633.486869,230.137614 630.01891,232.741868 628.841463,236.535904 C628.489002,237.51919 628.339618,238.564413 628.402439,239.607711 L628.402439,261 L622,261 L622,209 Z" id="路径" fill="#207DFE"></path>
                    <path d="M669.837696,215 L669.837696,225.10903 L679,225.10903 L679,229.92633 L669.837696,229.92633 L669.837696,248.921819 C669.837696,253.282935 671.08377,255.764574 674.657068,255.764574 C675.892582,255.776948 677.124493,255.629742 678.32199,255.326638 L678.615183,260.12569 C676.782101,260.747733 674.852044,261.038183 672.91623,260.983316 C670.324319,261.14208 667.79274,260.161728 665.989529,258.300955 C664.157068,256.476221 663.497382,253.282935 663.497382,249.177282 L663.497382,229.92633 L658,229.92633 L658,225.10903 L663.497382,225.10903 L663.497382,216.678756 L669.837696,215 Z" id="路径" fill="#207DFE"></path>
                    <path d="M686.313449,234.327262 C686.313449,230.675379 686.221258,227.717354 686,224.814107 L691.660521,224.814107 L691.955531,230.474525 L692.17679,230.474525 C694.350304,226.393467 698.674472,223.887824 703.331887,224.010692 C707.859337,223.975224 711.900859,226.815119 713.362256,231.058827 L713.509761,231.058827 C714.484949,229.267924 715.83677,227.705052 717.47397,226.475713 C719.717966,224.764799 722.49915,223.891983 725.328633,224.010692 C730.011931,224.010692 737,227.060015 737,239.275564 L737,260 L730.675705,260 L730.675705,240.078978 C730.675705,233.304735 728.186551,229.232885 722.968547,229.232885 C719.438478,229.412213 716.400599,231.763459 715.372017,235.112417 C715.03363,236.144589 714.859458,237.222613 714.855748,238.307815 L714.855748,260 L708.549892,260 L708.549892,238.910375 C708.549892,233.304735 706.042299,229.232885 701.17462,229.232885 C696.288827,229.790552 692.605732,233.893863 692.619306,238.7643 L692.619306,260 L686.313449,260 L686.313449,234.327262 Z" id="路径" fill="#207DFE"></path>
                    <polygon id="路径" fill="#207DFE" points="748 209 754 209 754 261 748 261"></polygon>
                    <polygon id="路径" fill="#207DFE" points="798 243.552147 764 261 764 255.93865 792.864104 241.564417 792.864104 241.435583 764 227.06135 764 222 798 239.447853"></polygon>
                    <g id="编组-26" transform="translate(20.000000, 0.000000)">
                        <path d="M251.830552,246.838662 C256.216277,258.358392 247.527576,270.655356 238.038963,278.566496 C208.911127,303.104909 169.081019,311.293632 131.209316,311.127082 C120.424293,311.127082 108.315278,310.905015 100.564406,318.455296 C97.4414925,321.7477 95.1107029,325.717168 93.7513607,330.058301 C86.0004878,351.7376 90.7447943,376.303771 83.5180018,398.177379 C82.0750069,403.55118 79.0914517,408.378361 74.9396335,412.056571 C70.6526211,415.718501 64.5681198,416.347365 59.63097,413.638799 C53.2592559,409.530558 53.1765064,400.370291 53.8109195,392.764494 L56.5692372,358.066512 C58.2518111,337.80289 60.5963812,315.901524 74.2500541,300.884238 C82.5250074,291.890521 93.7237775,286.533153 104.729465,281.453368 C124.810019,272.043276 237.018385,207.921405 251.830552,246.838662 Z" id="路径" fill="url(#linearGradient-7)"></path>
                        <path d="M124.47811,159.157209 C120.388074,163.285534 114.602825,165.058775 109.732453,168.189653 C105.624472,170.857817 102.193095,174.49553 99.7226277,178.80139 C102.036727,181.766026 106.476569,181.01794 110.001534,179.937372 C117.051465,177.720821 124.020671,175.171788 130.855337,172.234858 C132.374116,171.699677 133.78033,170.872273 134.999189,169.796652 C136.261706,168.330641 137.182082,166.586877 137.690003,164.698586 C140.38481,156.932886 141.882877,148.780812 142.129845,140.538182 C142.347903,138.332448 142.033643,136.105398 141.214968,134.054771 C136.802034,124.99462 133.142528,139.014304 132.120019,142.366837 C130.478623,148.379231 128.891043,154.6964 124.47811,159.157209 Z" id="路径" fill="url(#linearGradient-8)"></path>
                        <path d="M131.356211,127.993115 C131.036981,129.01377 131.036981,130.105119 131.356211,131.125774 C131.767403,131.997619 132.428101,132.732873 133.257571,133.241694 C136.298684,135.441807 139.731693,137.0635 143.379517,138.023122 C144.460995,138.368508 145.601523,138.499278 146.734858,138.407834 C148.750295,137.945614 150.53946,136.809006 151.795831,135.192736 C158.555261,127.620713 162.687815,118.131375 163.595448,108.097978 C164.098749,103.646304 165.692536,87.2135799 161.889816,83.9710024 C157.583795,80.2887533 152.271171,88.7524303 149.39117,92.2148436 C140.839092,102.732349 134.6884,114.934269 131.356211,127.993115 L131.356211,127.993115 Z" id="路径" fill="#FFFFFF"></path>
                        <path d="M226.383673,211.584178 C226.383673,211.584178 231.136987,260.535585 216.904842,265.500061 C202.672697,270.464538 169.983239,278.257935 152.220855,271.878998 C132.881259,263.712296 114.650815,253.145323 97.9608019,240.428066 C86.1470097,230.942864 84.5347745,226.838157 79.00314,240.899553 L49.843921,295.286923 C49.843921,295.286923 51.2615761,298.060374 30.6638818,299.530303 C10.0661876,301.000232 -3.4710285,302.303754 0.781936716,297.42248 C5.03490193,292.541207 28.2733262,282.501315 28.2733262,282.501315 C28.2733262,282.501315 56.7098191,183.683263 68.106654,179.412149 C79.5034889,175.141034 148.718413,209.448621 148.718413,209.448621 L226.383673,211.584178 Z" id="路径" fill="#606161"></path>
                        <path d="M142.451174,226.596215 C146.870019,224.512892 151.705736,222.929567 155.124088,219.457363 C137.135,207.376758 116.456426,199.889636 94.8999556,197.65192 C92.814156,197.377453 90.6959397,197.480959 88.6468732,197.957474 C84.7332901,199.530054 81.5439486,202.50001 79.6980174,206.290765 C70.4990383,221.346242 66.9139377,239.09615 64.6350365,256.568282 C68.8593411,255.06829 70.5268297,250.151648 72.3610673,246.068336 C74.5954779,241.160548 77.7783804,236.742577 81.7267952,233.068404 C82.5350199,232.154451 83.6005567,231.505765 84.7838578,231.207302 C86.2611623,231.116113 87.7270793,231.516597 88.9525794,232.346185 C93.769453,235.015929 98.2560652,238.241698 102.32028,241.957246 C106.933665,246.151669 108.045325,248.457213 113.937118,245.151674 C123.830884,239.512815 132.168327,231.485078 142.451174,226.596215 Z" id="路径" fill="url(#linearGradient-9)"></path>
                        <path d="M152.087199,94.8830857 C141.255541,121.034384 136.878554,149.553062 136.656934,177.851519 C136.656934,186.935654 137.51571,197.286062 144.690645,202.901709 C149.012227,206.287614 154.718932,207.196028 160.176315,207.994331 C172.947144,209.838685 185.994998,211.600457 198.710423,209.398242 C211.425847,207.196028 224.030462,200.424218 229.931084,189.027758 C234.501989,180.246427 234.640501,169.923547 234.501989,160.041109 C234.058749,132.348261 231.731744,99.0397657 210.040725,78.7518642 C201.72999,70.9615302 191.203059,61.9324505 179.2356,65.3458831 C165.107351,69.3649246 157.350665,82.2478798 152.087199,94.8830857 Z" id="路径" fill="#FFFFFF"></path>
                        <path d="M165.230944,80.9641133 C165.230944,82.9814467 165.230944,85.4894828 166.957543,86.4163657 C167.701863,86.7552734 168.534816,86.8413559 169.331618,86.6617171 C172.634723,85.8071156 175.438675,83.6055693 177.074339,80.5824556 C180.172442,75.7999282 181.491626,70.0621052 180.79732,64.3892659 C180.086943,59.3632627 177.663538,54.7451752 173.944877,51.3311214 C173.377775,50.4789149 172.458044,49.9334223 171.445225,49.8485767 C170.432405,49.7637312 169.436336,50.1487342 168.738099,50.8949412 C166.656152,52.508387 164.835767,54.4398523 163.342475,56.6198063 C161.8317,58.9370135 162.721978,60.2728154 163.342475,62.835374 C164.897243,68.7429991 165.534329,74.8588403 165.230944,80.9641133 Z" id="路径" fill="url(#linearGradient-10)"></path>
                        <polygon id="路径" fill="#207DFE" points="46.1678832 118.132159 59.5200336 192.599375 105.501502 227.035242 169.89781 206.128745 157.435803 195.995636 120.049782 162.144371 97.7961981 170.022585 94.2356246 151.983424"></polygon>
                        <path d="M99.7226277,170.16654 C99.7226277,170.16654 107.949295,212.789769 107.949295,214.042592 C107.949295,215.295415 158.817518,199.7713 158.817518,199.7713 L121.605562,162.431718 L99.7226277,170.16654 Z" id="路径" fill="url(#linearGradient-11)"></path>
                        <path d="M186.441667,103.365639 C186.441667,103.365639 179.052536,147.523778 180.843841,150.783591 C182.635145,154.043404 192.543297,158.015445 192.543297,158.015445 C192.543297,158.015445 189.212591,175.547213 166.289493,179.738401 C143.366396,183.929589 148.152537,202.392732 148.152537,202.392732 C148.152537,202.392732 160.579711,210.802502 182.999004,208.008376 C205.418297,205.214251 216.89384,204.72117 222.183785,196.3114 C227.473731,187.90163 231.252263,155.687007 227.445742,142.620362 C223.63922,129.553717 186.441667,103.365639 186.441667,103.365639 Z" id="路径" fill="url(#linearGradient-12)"></path>
                        <path d="M193.972979,171.77356 C185.6349,179.802436 173.850415,183.207787 162.482833,185.61645 C152.770485,187.606887 142.952949,189.048848 133.077206,189.935431 C126.267775,190.516832 119.180408,190.904433 113.149197,194.005241 C107.117986,197.106048 102.226313,203.778321 103.67158,210.422907 C126.443801,209.204733 149.197493,207.829673 171.932656,206.297726 C184.022871,205.494839 196.279848,204.581208 207.73081,200.760571 C215.76316,197.991993 223.79551,193.230039 226.96398,185.367278 C228.100376,182.199674 228.7288,178.873536 228.826151,175.51114 C229.16855,167.146691 228.982893,158.769075 228.270279,150.427825 C228.279982,144.79012 227.155359,139.207647 224.962841,134.010158 C219.015011,122.18833 204.145436,122.71436 202.060916,135.532876 C199.809635,149.126593 206.063195,160.173219 193.972979,171.77356 Z" id="路径" fill="url(#linearGradient-13)"></path>
                        <path d="M182.824818,94.5810539 L198.555126,145.819383 C198.555126,145.819383 232.083314,144.769191 235.715534,138.77204 C239.347755,132.774889 227.640829,87.1744346 211.295837,77.4463375 C194.950846,67.7182405 183.18804,79.0492626 182.824818,94.5810539 Z" id="路径" fill="#FFFFFF"></path>
                        <path d="M161.977927,219.651982 L44.1249771,282.894549 L34.9659931,394.409219 C34.9659931,394.409219 16.620438,411.46277 16.620438,416.434408 C16.620438,421.406045 26.4966917,418.573045 41.3110724,412.87927 C49.3841966,409.975677 56.9951318,405.905806 63.9050719,400.797357 L84.347262,307.030601 C84.347262,307.030601 206.421069,289.977049 215.580053,264.424497 C221.138322,250.112592 216.521121,233.825675 204.296847,224.62362 L161.977927,219.651982 Z" id="路径" fill="#606161"></path>
                        <polygon id="路径" fill="url(#linearGradient-14)" points="57.7341529 189.679932 103.416058 223.343612 89.1699687 144.134954 48.0145985 125.515419"></polygon>
                        <path d="M134.445477,61.2046081 C135.843334,63.8437295 137.575859,66.2865311 139.599031,68.4709435 C145.572636,74.1836647 154.453103,75.4650283 161.764857,71.6692532 C166.840123,68.6632627 170.572512,63.7883985 172.182796,58.062409 C173.760724,52.3727415 174.01677,46.3904903 172.930892,40.5839267 C171.9017,25.9743966 161.040535,14.0225017 146.74751,11.7710834 C144.116121,11.0172469 141.350808,10.8734087 138.656984,11.3502532 C136.105503,12.0740881 133.709515,13.2728608 131.591627,14.8852271 C129.178716,16.3913917 126.978977,18.2223668 125.052708,20.3279648 C115.881597,31.1853848 128.987142,51.6657895 134.445477,61.2046081 Z" id="路径" fill="url(#linearGradient-15)"></path>
                        <path d="M166.989383,40.3463344 C168.043709,39.5505716 168.629378,38.2854911 168.551161,36.9728041 C168.551161,35.6669214 168.249765,34.3882446 168.249765,33.1095678 C168.228808,32.7634382 168.294711,32.4175562 168.441562,32.1029498 C169.016954,31.069126 170.688329,31.5044203 171.428118,32.4294205 C173.455689,34.9051565 172.140508,38.5235398 172.277506,41.679423 C172.385507,44.0446194 173.359884,46.2891936 175.017466,47.9911894 C178.941358,37.5202767 177.725677,25.8316546 171.729514,16.3779456 C171.089974,15.5529721 170.581732,14.6354288 170.222536,13.6573566 C170.085137,11.5193341 170.085137,9.37478917 170.222536,7.23676666 C169.162805,3.65958211 165.968851,1.11813909 162.221853,0.87058847 C158.605106,0.353676566 154.90616,1.03382381 151.262014,0.87058847 C148.741251,0.707353132 146.275287,0.0816176691 143.781923,0 C141.105218,0.00843884848 138.441827,0.374468139 135.863439,1.08823559 C129.680692,2.20478733 123.964278,5.09954763 119.42368,9.41323784 C114.409554,14.8544158 113.121773,22.7169179 112.710779,30.1169199 C112.491582,34.3610387 112.710779,39.2308929 115.943931,42.0603055 C118.474521,43.9072698 121.624135,44.7158984 124.739202,44.3183943 C128.057043,44.2943608 131.270457,43.1637236 133.863269,41.1080993 C136.158231,38.4223683 137.957683,35.3554546 139.178791,32.0485381 C139.313032,31.6882576 139.563498,31.3821704 139.89118,31.1779496 C140.248246,31.068847 140.630099,31.068847 140.987164,31.1779496 C143.337368,31.7877338 145.741457,32.1703976 148.165859,32.320597 C150.627109,32.4634736 153.037867,31.5867635 154.823962,29.8992728 C155.060602,29.5574387 155.409137,29.3074985 155.810347,29.1919196 C156.115634,29.1961229 156.415772,29.2706268 156.687134,29.4095668 C159.129269,30.2775967 161.464095,31.4185019 163.646632,32.810303 C165.107794,35.1560609 166.232849,37.6924295 166.989383,40.3463344 Z" id="路径" fill="#606161"></path>
                        <path d="M105.322671,177.359939 C105.487099,179.191088 106.95628,180.662344 108.847623,180.889868 C109.582088,180.855626 110.301661,180.677702 110.962594,180.366915 C116.109864,178.349302 120.737176,175.270368 124.520099,171.345985 C124.956085,170.966272 125.290894,170.490946 125.49624,169.960161 C125.649041,169.242782 125.583116,168.49808 125.306435,167.816056 C123.733764,163.004893 117.171931,158.036845 112.074309,162.063579 C110.597351,163.691931 109.431442,165.559883 108.630703,167.580727 C107.166492,170.378523 104.861716,174.03919 105.322671,177.359939 Z" id="路径" fill="url(#linearGradient-16)"></path>
                    </g>
                </g>
            </g>
        </g>
    </g>
</svg>