<svg id="Capa_1" enable-background="new 0 0 512 512" height="512" viewBox="0 0 1012 512" width="512" xmlns="http://www.w3.org/2000/svg"><g><path d="m379.6 75.399-7.2-28.798-39.6 9.898-23.399-56.499-53.401 17.701-53.401-17.701-23.399 56.499-39.6-9.898-7.2 28.798 123.6 31.202z"/><path d="m416.811 512 70.005-181h-461.631l70.005 181zm-175.811-121h30v30h-30z"/><path d="m421 246.625-91.155-44.412c-16.271 23.386-43.257 38.787-73.845 38.787s-57.574-15.401-73.845-38.787l-91.155 44.412v54.375h330z"/><path d="m196 122.392v28.608c0 33.137 26.863 60 60 60s60-26.863 60-60v-28.608l-60 15.146z"/></g></svg>