<svg id="Capa_1" enable-background="new 0 0 512 512" height="512" viewBox="0 0 512 512" width="512" xmlns="http://www.w3.org/2000/svg"><g><g><circle cx="256" cy="267" fill="#3b3868" r="245"/></g><g><circle cx="256" cy="312" fill="#47477f" r="180"/></g><g><path d="m386 0h-260c-44.183 0-80 35.817-80 80v191.169c0 44.183 35.817 80 80 80h42.559c13.765 0 26.563 7.078 33.88 18.737l19.681 31.358c15.679 24.982 52.081 24.982 67.76 0l19.681-31.358c7.317-11.659 20.115-18.737 33.88-18.737h42.559c44.183 0 80-35.817 80-80v-191.169c0-44.183-35.817-80-80-80z" fill="#42c3fc"/></g><g><path d="m206.404 271.169v-191.169c0-44.183 35.817-80 80-80h-159.882c-44.183 0-80 35.817-80 80v191.169c0 44.183 35.817 80 80 80h42.559c13.765 0 26.563 7.078 33.88 18.737l19.681 31.358c15.679 24.982 52.081 24.982 67.76 0l19.681-31.358c7.317-11.659 20.115-18.737 33.88-18.737h-57.559c-44.183 0-80-35.818-80-80z" fill="#1aa9e8"/></g><g><g><g><path d="m363.586 160.382c12.379 0 22.414-10.035 22.414-22.414s-10.035-22.414-22.414-22.414h-22.499l11.732-41.454c3.371-11.911-3.552-24.299-15.463-27.671-11.907-3.368-24.299 3.552-27.67 15.464l-15.186 53.661h-43.548l11.732-41.454c3.371-11.911-3.552-24.299-15.463-27.671-11.907-3.368-24.299 3.552-27.67 15.464l-15.186 53.661h-35.105c-12.379 0-22.414 10.035-22.414 22.414s10.035 22.414 22.414 22.414h22.418l-8.268 29.214h-34.995c-12.379 0-22.414 10.035-22.414 22.414 0 12.378 10.035 22.414 22.414 22.414h22.309l-12.068 42.642c-3.371 11.911 3.552 24.299 15.463 27.671 2.04.577 4.094.853 6.115.853 9.775 0 18.761-6.446 21.555-16.317l15.523-54.849h43.548l-12.068 42.642c-3.371 11.911 3.552 24.299 15.463 27.671 2.04.577 4.094.853 6.115.853 9.775 0 18.762-6.446 21.555-16.317l15.523-54.849h35.294c12.379 0 22.414-10.035 22.414-22.414 0-12.378-10.035-22.414-22.414-22.414h-22.608l8.268-29.214zm-90.041 29.215h-43.548l8.268-29.214h43.548z" fill="#fff"/></g></g><g><g><path d="m217.106 234.383c-12.367-3.56-19.507-16.471-15.947-28.839 3.56-12.367 16.471-19.507 28.839-15.947l.004-.014 8.264-29.2h.032l.003-.009c-12.367-3.56-19.507-16.472-15.947-28.839 3.538-12.29 16.311-19.413 28.608-16.007l11.724-41.427c3.371-11.911-3.552-24.299-15.463-27.671-11.907-3.368-24.299 3.552-27.67 15.464l-15.186 53.661h-35.105c-12.379 0-22.414 10.035-22.414 22.414s10.035 22.414 22.414 22.414h22.418l-8.268 29.214h-34.995c-12.379 0-22.414 10.035-22.414 22.414 0 12.378 10.035 22.414 22.414 22.414h22.309l-12.068 42.642c-3.371 11.911 3.552 24.299 15.463 27.671 2.04.577 4.094.853 6.115.853 9.775 0 18.761-6.446 21.555-16.317l15.468-54.655z" fill="#d3dcfb"/></g></g></g></g></svg>